<svg xmlns="http://www.w3.org/2000/svg" width="100" height="148.193" viewBox="0 0 100 148.193"><g transform="translate(-304 -743.807)"><g transform="translate(304 743.807)" fill="#fff" stroke="#bebebe" stroke-width="1"><rect width="100" height="148.193" rx="5" stroke="none"/><rect x="0.5" y="0.5" width="99" height="147.193" rx="4.5" fill="none"/></g><g transform="translate(316 810)" fill="#bebebe" stroke="#bebebe" stroke-width="1"><path d="M35,0h4A35,35,0,0,1,74,35V82a0,0,0,0,1,0,0H0a0,0,0,0,1,0,0V35A35,35,0,0,1,35,0Z" stroke="none"/><path d="M35,.5h4A34.5,34.5,0,0,1,73.5,35V81.5a0,0,0,0,1,0,0H.5a0,0,0,0,1,0,0V35A34.5,34.5,0,0,1,35,.5Z" fill="none"/></g><g transform="translate(329 759)" fill="#bebebe" stroke="#bebebe" stroke-width="1"><circle cx="24" cy="24" r="24" stroke="none"/><circle cx="24" cy="24" r="23.5" fill="none"/></g></g></svg>